<?xml version="1.0" encoding="UTF-8" standalone="no"?>
<!DOCTYPE svg PUBLIC "-//W3C//DTD SVG 1.1//EN"
 "http://www.w3.org/Graphics/SVG/1.1/DTD/svg11.dtd">
<!-- Generated by graphviz version 5.0.0 (0)
 -->
<!-- Title: runtime Pages: 1 -->
<svg width="801pt" height="1296pt"
 viewBox="0.00 0.00 801.00 1296.00" xmlns="http://www.w3.org/2000/svg" xmlns:xlink="http://www.w3.org/1999/xlink">
<g id="graph0" class="graph" transform="scale(1 1) rotate(0) translate(4 1292)">
<title>runtime</title>
<polygon fill="white" stroke="transparent" points="-4,4 -4,-1292 797,-1292 797,4 -4,4"/>
<!-- runtime -->
<g id="node1" class="node">
<title>runtime</title>
<polygon fill="none" stroke="black" points="0,-274.5 0,-310.5 74,-310.5 74,-274.5 0,-274.5"/>
<text text-anchor="middle" x="37" y="-288.8" font-family="Times,serif" font-size="14.00">runtime</text>
</g>
<!-- runtime/bin -->
<g id="node2" class="node">
<title>runtime/bin</title>
<polygon fill="none" stroke="black" points="110,-962.5 110,-998.5 164,-998.5 164,-962.5 110,-962.5"/>
<text text-anchor="middle" x="137" y="-976.8" font-family="Times,serif" font-size="14.00">bin</text>
</g>
<!-- runtime&#45;&gt;runtime/bin -->
<g id="edge1" class="edge">
<title>runtime&#45;&gt;runtime/bin</title>
<path fill="none" stroke="black" d="M40.57,-310.55C53.94,-404.41 115.54,-836.86 131.97,-952.18"/>
<polygon fill="black" stroke="black" points="128.54,-952.92 133.41,-962.32 135.47,-951.93 128.54,-952.92"/>
</g>
<!-- runtime/etc -->
<g id="node13" class="node">
<title>runtime/etc</title>
<polygon fill="none" stroke="black" points="110,-715.5 110,-751.5 164,-751.5 164,-715.5 110,-715.5"/>
<text text-anchor="middle" x="137" y="-729.8" font-family="Times,serif" font-size="14.00">etc</text>
</g>
<!-- runtime&#45;&gt;runtime/etc -->
<g id="edge12" class="edge">
<title>runtime&#45;&gt;runtime/etc</title>
<path fill="none" stroke="black" d="M42.02,-310.61C57.24,-379.09 111.33,-622.5 129.78,-705.52"/>
<polygon fill="black" stroke="black" points="126.41,-706.48 132,-715.48 133.24,-704.96 126.41,-706.48"/>
</g>
<!-- runtime/lib -->
<g id="node23" class="node">
<title>runtime/lib</title>
<polygon fill="none" stroke="black" points="110,-385.5 110,-421.5 164,-421.5 164,-385.5 110,-385.5"/>
<text text-anchor="middle" x="137" y="-399.8" font-family="Times,serif" font-size="14.00">lib</text>
</g>
<!-- runtime&#45;&gt;runtime/lib -->
<g id="edge22" class="edge">
<title>runtime&#45;&gt;runtime/lib</title>
<path fill="none" stroke="black" d="M54.18,-310.83C70.21,-328.99 94.91,-356.96 112.98,-377.43"/>
<polygon fill="black" stroke="black" points="110.55,-379.96 119.79,-385.14 115.8,-375.33 110.55,-379.96"/>
</g>
<!-- runtime/opt -->
<g id="node50" class="node">
<title>runtime/opt</title>
<polygon fill="none" stroke="black" points="110,-302.5 110,-338.5 164,-338.5 164,-302.5 110,-302.5"/>
<text text-anchor="middle" x="137" y="-316.8" font-family="Times,serif" font-size="14.00">opt</text>
</g>
<!-- runtime&#45;&gt;runtime/opt -->
<g id="edge49" class="edge">
<title>runtime&#45;&gt;runtime/opt</title>
<path fill="none" stroke="black" d="M74.21,-302.85C82.59,-305.24 91.49,-307.78 99.86,-310.18"/>
<polygon fill="black" stroke="black" points="99.16,-313.61 109.73,-313 101.08,-306.88 99.16,-313.61"/>
</g>
<!-- runtime/src -->
<g id="node51" class="node">
<title>runtime/src</title>
<polygon fill="none" stroke="black" points="110,-247.5 110,-283.5 164,-283.5 164,-247.5 110,-247.5"/>
<text text-anchor="middle" x="137" y="-261.8" font-family="Times,serif" font-size="14.00">src</text>
</g>
<!-- runtime&#45;&gt;runtime/src -->
<g id="edge50" class="edge">
<title>runtime&#45;&gt;runtime/src</title>
<path fill="none" stroke="black" d="M74.21,-282.52C82.59,-280.22 91.49,-277.76 99.86,-275.46"/>
<polygon fill="black" stroke="black" points="101.02,-278.77 109.73,-272.74 99.16,-272.02 101.02,-278.77"/>
</g>
<!-- runtime/usr -->
<g id="node52" class="node">
<title>runtime/usr</title>
<polygon fill="none" stroke="black" points="110,-165.5 110,-201.5 164,-201.5 164,-165.5 110,-165.5"/>
<text text-anchor="middle" x="137" y="-179.8" font-family="Times,serif" font-size="14.00">usr</text>
</g>
<!-- runtime&#45;&gt;runtime/usr -->
<g id="edge51" class="edge">
<title>runtime&#45;&gt;runtime/usr</title>
<path fill="none" stroke="black" d="M54.62,-274.01C70.63,-256.21 94.98,-229.13 112.87,-209.23"/>
<polygon fill="black" stroke="black" points="115.54,-211.49 119.62,-201.72 110.33,-206.81 115.54,-211.49"/>
</g>
<!-- runtime/var -->
<g id="node56" class="node">
<title>runtime/var</title>
<polygon fill="none" stroke="black" points="110,-110.5 110,-146.5 164,-146.5 164,-110.5 110,-110.5"/>
<text text-anchor="middle" x="137" y="-124.8" font-family="Times,serif" font-size="14.00">var</text>
</g>
<!-- runtime&#45;&gt;runtime/var -->
<g id="edge55" class="edge">
<title>runtime&#45;&gt;runtime/var</title>
<path fill="none" stroke="black" d="M45.71,-274.47C57.6,-247.58 82,-195.92 110,-156.5 110.45,-155.87 110.91,-155.24 111.38,-154.61"/>
<polygon fill="black" stroke="black" points="114.32,-156.55 117.94,-146.59 108.9,-152.12 114.32,-156.55"/>
</g>
<!-- runtime/doc -->
<g id="node58" class="node">
<title>runtime/doc</title>
<polygon fill="none" stroke="black" points="110,-55.5 110,-91.5 164,-91.5 164,-55.5 110,-55.5"/>
<text text-anchor="middle" x="137" y="-69.8" font-family="Times,serif" font-size="14.00">doc</text>
</g>
<!-- runtime&#45;&gt;runtime/doc -->
<g id="edge57" class="edge">
<title>runtime&#45;&gt;runtime/doc</title>
<path fill="none" stroke="black" d="M42.32,-274.33C51.24,-239.09 73.9,-159.8 110,-101.5 110.39,-100.87 110.8,-100.23 111.22,-99.6"/>
<polygon fill="black" stroke="black" points="114.01,-101.73 117.3,-91.66 108.45,-97.47 114.01,-101.73"/>
</g>
<!-- runtime/bin/setup -->
<g id="node3" class="node">
<title>runtime/bin/setup</title>
<polygon fill="none" stroke="black" points="231,-1059.5 231,-1095.5 287,-1095.5 287,-1059.5 231,-1059.5"/>
<text text-anchor="middle" x="259" y="-1073.8" font-family="Times,serif" font-size="14.00">setup</text>
</g>
<!-- runtime/bin&#45;&gt;runtime/bin/setup -->
<g id="edge2" class="edge">
<title>runtime/bin&#45;&gt;runtime/bin/setup</title>
<path fill="none" stroke="black" d="M156.75,-998.51C168.79,-1009.8 184.94,-1024.45 200,-1036.5 207.06,-1042.15 214.83,-1047.93 222.33,-1053.29"/>
<polygon fill="black" stroke="black" points="220.76,-1056.47 230.95,-1059.37 224.79,-1050.75 220.76,-1056.47"/>
</g>
<!-- runtime/bin/test -->
<g id="node11" class="node">
<title>runtime/bin/test</title>
<polygon fill="none" stroke="black" points="232,-990.5 232,-1026.5 286,-1026.5 286,-990.5 232,-990.5"/>
<text text-anchor="middle" x="259" y="-1004.8" font-family="Times,serif" font-size="14.00">test</text>
</g>
<!-- runtime/bin&#45;&gt;runtime/bin/test -->
<g id="edge10" class="edge">
<title>runtime/bin&#45;&gt;runtime/bin/test</title>
<path fill="none" stroke="black" d="M164.04,-986.58C180.9,-990.51 203.11,-995.69 221.7,-1000.03"/>
<polygon fill="black" stroke="black" points="221.06,-1003.48 231.6,-1002.34 222.66,-996.66 221.06,-1003.48"/>
</g>
<!-- runtime/bin/experimental -->
<g id="node12" class="node">
<title>runtime/bin/experimental</title>
<polygon fill="none" stroke="black" points="203.5,-935.5 203.5,-971.5 314.5,-971.5 314.5,-935.5 203.5,-935.5"/>
<text text-anchor="middle" x="259" y="-949.8" font-family="Times,serif" font-size="14.00">experimental</text>
</g>
<!-- runtime/bin&#45;&gt;runtime/bin/experimental -->
<g id="edge11" class="edge">
<title>runtime/bin&#45;&gt;runtime/bin/experimental</title>
<path fill="none" stroke="black" d="M164.04,-974.64C172.81,-972.67 183.04,-970.37 193.44,-968.03"/>
<polygon fill="black" stroke="black" points="194.44,-971.39 203.43,-965.78 192.91,-964.56 194.44,-971.39"/>
</g>
<!-- runtime/bin/setup/lib -->
<g id="node4" class="node">
<title>runtime/bin/setup/lib</title>
<polygon fill="none" stroke="black" points="385,-1251.5 385,-1287.5 439,-1287.5 439,-1251.5 385,-1251.5"/>
<text text-anchor="middle" x="412" y="-1265.8" font-family="Times,serif" font-size="14.00">lib</text>
</g>
<!-- runtime/bin/setup&#45;&gt;runtime/bin/setup/lib -->
<g id="edge3" class="edge">
<title>runtime/bin/setup&#45;&gt;runtime/bin/setup/lib</title>
<path fill="none" stroke="black" d="M266.17,-1095.73C278.23,-1128.91 307.83,-1199.69 354,-1242.5 360.22,-1248.27 367.9,-1253.02 375.58,-1256.84"/>
<polygon fill="black" stroke="black" points="374.31,-1260.1 384.86,-1261.04 377.19,-1253.73 374.31,-1260.1"/>
</g>
<!-- runtime/bin/setup/network -->
<g id="node5" class="node">
<title>runtime/bin/setup/network</title>
<polygon fill="none" stroke="black" points="374.5,-1196.5 374.5,-1232.5 449.5,-1232.5 449.5,-1196.5 374.5,-1196.5"/>
<text text-anchor="middle" x="412" y="-1210.8" font-family="Times,serif" font-size="14.00">network</text>
</g>
<!-- runtime/bin/setup&#45;&gt;runtime/bin/setup/network -->
<g id="edge4" class="edge">
<title>runtime/bin/setup&#45;&gt;runtime/bin/setup/network</title>
<path fill="none" stroke="black" d="M271.79,-1095.55C287.98,-1119.19 319.08,-1160.79 354,-1187.5 357.57,-1190.23 361.46,-1192.78 365.48,-1195.14"/>
<polygon fill="black" stroke="black" points="363.94,-1198.28 374.4,-1199.98 367.28,-1192.13 363.94,-1198.28"/>
</g>
<!-- runtime/bin/setup/pkg -->
<g id="node6" class="node">
<title>runtime/bin/setup/pkg</title>
<polygon fill="none" stroke="black" points="385,-1141.5 385,-1177.5 439,-1177.5 439,-1141.5 385,-1141.5"/>
<text text-anchor="middle" x="412" y="-1155.8" font-family="Times,serif" font-size="14.00">pkg</text>
</g>
<!-- runtime/bin/setup&#45;&gt;runtime/bin/setup/pkg -->
<g id="edge5" class="edge">
<title>runtime/bin/setup&#45;&gt;runtime/bin/setup/pkg</title>
<path fill="none" stroke="black" d="M287.2,-1094.26C305.78,-1105.5 331.09,-1120.4 354,-1132.5 360.86,-1136.12 368.28,-1139.8 375.43,-1143.24"/>
<polygon fill="black" stroke="black" points="374.41,-1146.63 384.94,-1147.74 377.4,-1140.3 374.41,-1146.63"/>
</g>
<!-- runtime/bin/setup/provider -->
<g id="node7" class="node">
<title>runtime/bin/setup/provider</title>
<polygon fill="none" stroke="black" points="373.5,-1086.5 373.5,-1122.5 450.5,-1122.5 450.5,-1086.5 373.5,-1086.5"/>
<text text-anchor="middle" x="412" y="-1100.8" font-family="Times,serif" font-size="14.00">provider</text>
</g>
<!-- runtime/bin/setup&#45;&gt;runtime/bin/setup/provider -->
<g id="edge6" class="edge">
<title>runtime/bin/setup&#45;&gt;runtime/bin/setup/provider</title>
<path fill="none" stroke="black" d="M287.34,-1082.39C308.48,-1086.17 338.27,-1091.49 363.31,-1095.97"/>
<polygon fill="black" stroke="black" points="362.89,-1099.45 373.35,-1097.77 364.12,-1092.56 362.89,-1099.45"/>
</g>
<!-- runtime/bin/setup/runtime -->
<g id="node8" class="node">
<title>runtime/bin/setup/runtime</title>
<polygon fill="none" stroke="black" points="375,-1031.5 375,-1067.5 449,-1067.5 449,-1031.5 375,-1031.5"/>
<text text-anchor="middle" x="412" y="-1045.8" font-family="Times,serif" font-size="14.00">runtime</text>
</g>
<!-- runtime/bin/setup&#45;&gt;runtime/bin/setup/runtime -->
<g id="edge7" class="edge">
<title>runtime/bin/setup&#45;&gt;runtime/bin/setup/runtime</title>
<path fill="none" stroke="black" d="M287.34,-1072.43C308.86,-1068.44 339.32,-1062.79 364.63,-1058.1"/>
<polygon fill="black" stroke="black" points="365.57,-1061.48 374.76,-1056.22 364.29,-1054.6 365.57,-1061.48"/>
</g>
<!-- runtime/bin/setup/storage -->
<g id="node9" class="node">
<title>runtime/bin/setup/storage</title>
<polygon fill="none" stroke="black" points="376.5,-976.5 376.5,-1012.5 447.5,-1012.5 447.5,-976.5 376.5,-976.5"/>
<text text-anchor="middle" x="412" y="-990.8" font-family="Times,serif" font-size="14.00">storage</text>
</g>
<!-- runtime/bin/setup&#45;&gt;runtime/bin/setup/storage -->
<g id="edge8" class="edge">
<title>runtime/bin/setup&#45;&gt;runtime/bin/setup/storage</title>
<path fill="none" stroke="black" d="M287.26,-1060.84C305.86,-1049.65 331.18,-1034.76 354,-1022.5 358.27,-1020.21 362.75,-1017.88 367.25,-1015.59"/>
<polygon fill="black" stroke="black" points="369.06,-1018.59 376.43,-1010.98 365.93,-1012.34 369.06,-1018.59"/>
</g>
<!-- runtime/bin/setup/gpu -->
<g id="node10" class="node">
<title>runtime/bin/setup/gpu</title>
<polygon fill="none" stroke="black" points="385,-921.5 385,-957.5 439,-957.5 439,-921.5 385,-921.5"/>
<text text-anchor="middle" x="412" y="-935.8" font-family="Times,serif" font-size="14.00">gpu</text>
</g>
<!-- runtime/bin/setup&#45;&gt;runtime/bin/setup/gpu -->
<g id="edge9" class="edge">
<title>runtime/bin/setup&#45;&gt;runtime/bin/setup/gpu</title>
<path fill="none" stroke="black" d="M287.25,-1062.1C297.76,-1055.23 309.32,-1046.44 318,-1036.5 340.76,-1010.45 329.25,-991.66 354,-967.5 360.24,-961.41 368.06,-956.41 375.89,-952.41"/>
<polygon fill="black" stroke="black" points="377.41,-955.57 385,-948.17 374.45,-949.22 377.41,-955.57"/>
</g>
<!-- runtime/etc/backup -->
<g id="node14" class="node">
<title>runtime/etc/backup</title>
<polygon fill="none" stroke="black" points="225,-825.5 225,-861.5 293,-861.5 293,-825.5 225,-825.5"/>
<text text-anchor="middle" x="259" y="-839.8" font-family="Times,serif" font-size="14.00">backup</text>
</g>
<!-- runtime/etc&#45;&gt;runtime/etc/backup -->
<g id="edge13" class="edge">
<title>runtime/etc&#45;&gt;runtime/etc/backup</title>
<path fill="none" stroke="black" d="M147.99,-751.76C158.8,-770.12 177.53,-798.24 200,-816.5 204.69,-820.31 210.01,-823.73 215.48,-826.74"/>
<polygon fill="black" stroke="black" points="214.24,-830.03 224.74,-831.42 217.4,-823.79 214.24,-830.03"/>
</g>
<!-- runtime/etc/docker -->
<g id="node20" class="node">
<title>runtime/etc/docker</title>
<polygon fill="none" stroke="black" points="226.5,-770.5 226.5,-806.5 291.5,-806.5 291.5,-770.5 226.5,-770.5"/>
<text text-anchor="middle" x="259" y="-784.8" font-family="Times,serif" font-size="14.00">docker</text>
</g>
<!-- runtime/etc&#45;&gt;runtime/etc/docker -->
<g id="edge19" class="edge">
<title>runtime/etc&#45;&gt;runtime/etc/docker</title>
<path fill="none" stroke="black" d="M164.04,-745.43C179.51,-752.52 199.47,-761.67 217.02,-769.72"/>
<polygon fill="black" stroke="black" points="215.92,-773.06 226.47,-774.05 218.84,-766.7 215.92,-773.06"/>
</g>
<!-- runtime/etc/etckeeper -->
<g id="node21" class="node">
<title>runtime/etc/etckeeper</title>
<polygon fill="none" stroke="black" points="215.5,-715.5 215.5,-751.5 302.5,-751.5 302.5,-715.5 215.5,-715.5"/>
<text text-anchor="middle" x="259" y="-729.8" font-family="Times,serif" font-size="14.00">etckeeper</text>
</g>
<!-- runtime/etc&#45;&gt;runtime/etc/etckeeper -->
<g id="edge20" class="edge">
<title>runtime/etc&#45;&gt;runtime/etc/etckeeper</title>
<path fill="none" stroke="black" d="M164.04,-733.5C176.13,-733.5 190.97,-733.5 205.25,-733.5"/>
<polygon fill="black" stroke="black" points="205.5,-737 215.5,-733.5 205.5,-730 205.5,-737"/>
</g>
<!-- runtime/etc/project -->
<g id="node22" class="node">
<title>runtime/etc/project</title>
<polygon fill="none" stroke="black" points="225.5,-660.5 225.5,-696.5 292.5,-696.5 292.5,-660.5 225.5,-660.5"/>
<text text-anchor="middle" x="259" y="-674.8" font-family="Times,serif" font-size="14.00">project</text>
</g>
<!-- runtime/etc&#45;&gt;runtime/etc/project -->
<g id="edge21" class="edge">
<title>runtime/etc&#45;&gt;runtime/etc/project</title>
<path fill="none" stroke="black" d="M164.04,-721.57C179.16,-714.63 198.57,-705.74 215.82,-697.83"/>
<polygon fill="black" stroke="black" points="217.51,-700.91 225.15,-693.56 214.6,-694.54 217.51,-700.91"/>
</g>
<!-- runtime/etc/backup/policy -->
<g id="node15" class="node">
<title>runtime/etc/backup/policy</title>
<polygon fill="none" stroke="black" points="382.5,-866.5 382.5,-902.5 441.5,-902.5 441.5,-866.5 382.5,-866.5"/>
<text text-anchor="middle" x="412" y="-880.8" font-family="Times,serif" font-size="14.00">policy</text>
</g>
<!-- runtime/etc/backup&#45;&gt;runtime/etc/backup/policy -->
<g id="edge14" class="edge">
<title>runtime/etc/backup&#45;&gt;runtime/etc/backup/policy</title>
<path fill="none" stroke="black" d="M293.14,-852.5C316.49,-858.84 347.83,-867.35 372.32,-874"/>
<polygon fill="black" stroke="black" points="371.45,-877.39 382.02,-876.63 373.28,-870.63 371.45,-877.39"/>
</g>
<!-- runtime/etc/backup/schedule -->
<g id="node16" class="node">
<title>runtime/etc/backup/schedule</title>
<polygon fill="none" stroke="black" points="372,-811.5 372,-847.5 452,-847.5 452,-811.5 372,-811.5"/>
<text text-anchor="middle" x="412" y="-825.8" font-family="Times,serif" font-size="14.00">schedule</text>
</g>
<!-- runtime/etc/backup&#45;&gt;runtime/etc/backup/schedule -->
<g id="edge15" class="edge">
<title>runtime/etc/backup&#45;&gt;runtime/etc/backup/schedule</title>
<path fill="none" stroke="black" d="M293.14,-840.43C313.24,-838.56 339.26,-836.15 361.74,-834.07"/>
<polygon fill="black" stroke="black" points="362.15,-837.54 371.79,-833.14 361.51,-830.57 362.15,-837.54"/>
</g>
<!-- runtime/etc/backup/target -->
<g id="node17" class="node">
<title>runtime/etc/backup/target</title>
<polygon fill="none" stroke="black" points="381.5,-756.5 381.5,-792.5 442.5,-792.5 442.5,-756.5 381.5,-756.5"/>
<text text-anchor="middle" x="412" y="-770.8" font-family="Times,serif" font-size="14.00">target</text>
</g>
<!-- runtime/etc/backup&#45;&gt;runtime/etc/backup/target -->
<g id="edge16" class="edge">
<title>runtime/etc/backup&#45;&gt;runtime/etc/backup/target</title>
<path fill="none" stroke="black" d="M293.14,-828.36C316.36,-817.75 347.49,-803.52 371.92,-792.36"/>
<polygon fill="black" stroke="black" points="373.62,-795.43 381.27,-788.09 370.72,-789.06 373.62,-795.43"/>
</g>
<!-- runtime/etc/backup/target/destination -->
<g id="node18" class="node">
<title>runtime/etc/backup/target/destination</title>
<polygon fill="none" stroke="black" points="511,-770.5 511,-806.5 608,-806.5 608,-770.5 511,-770.5"/>
<text text-anchor="middle" x="559.5" y="-784.8" font-family="Times,serif" font-size="14.00">destination</text>
</g>
<!-- runtime/etc/backup/target&#45;&gt;runtime/etc/backup/target/destination -->
<g id="edge17" class="edge">
<title>runtime/etc/backup/target&#45;&gt;runtime/etc/backup/target/destination</title>
<path fill="none" stroke="black" d="M442.8,-777.37C459.5,-778.97 480.92,-781.04 500.78,-782.95"/>
<polygon fill="black" stroke="black" points="500.7,-786.45 510.99,-783.93 501.37,-779.49 500.7,-786.45"/>
</g>
<!-- runtime/etc/backup/target/source -->
<g id="node19" class="node">
<title>runtime/etc/backup/target/source</title>
<polygon fill="none" stroke="black" points="527.5,-715.5 527.5,-751.5 591.5,-751.5 591.5,-715.5 527.5,-715.5"/>
<text text-anchor="middle" x="559.5" y="-729.8" font-family="Times,serif" font-size="14.00">source</text>
</g>
<!-- runtime/etc/backup/target&#45;&gt;runtime/etc/backup/target/source -->
<g id="edge18" class="edge">
<title>runtime/etc/backup/target&#45;&gt;runtime/etc/backup/target/source</title>
<path fill="none" stroke="black" d="M442.8,-766.1C464.4,-760.02 493.88,-751.71 517.68,-745"/>
<polygon fill="black" stroke="black" points="518.81,-748.32 527.49,-742.24 516.91,-741.58 518.81,-748.32"/>
</g>
<!-- runtime/lib/cpe -->
<g id="node24" class="node">
<title>runtime/lib/cpe</title>
<polygon fill="none" stroke="black" points="232,-605.5 232,-641.5 286,-641.5 286,-605.5 232,-605.5"/>
<text text-anchor="middle" x="259" y="-619.8" font-family="Times,serif" font-size="14.00">cpe</text>
</g>
<!-- runtime/lib&#45;&gt;runtime/lib/cpe -->
<g id="edge23" class="edge">
<title>runtime/lib&#45;&gt;runtime/lib/cpe</title>
<path fill="none" stroke="black" d="M139.08,-421.53C142.2,-458.68 154.25,-544.64 200,-596.5 206.09,-603.4 214.31,-608.66 222.64,-612.62"/>
<polygon fill="black" stroke="black" points="221.42,-615.9 231.99,-616.56 224.14,-609.45 221.42,-615.9"/>
</g>
<!-- runtime/lib/jvm -->
<g id="node34" class="node">
<title>runtime/lib/jvm</title>
<polygon fill="none" stroke="black" points="232,-550.5 232,-586.5 286,-586.5 286,-550.5 232,-550.5"/>
<text text-anchor="middle" x="259" y="-564.8" font-family="Times,serif" font-size="14.00">jvm</text>
</g>
<!-- runtime/lib&#45;&gt;runtime/lib/jvm -->
<g id="edge33" class="edge">
<title>runtime/lib&#45;&gt;runtime/lib/jvm</title>
<path fill="none" stroke="black" d="M141.9,-421.94C148.88,-450.86 166.06,-507.1 200,-541.5 206.28,-547.86 214.35,-552.9 222.45,-556.8"/>
<polygon fill="black" stroke="black" points="221.32,-560.13 231.88,-560.89 224.1,-553.7 221.32,-560.13"/>
</g>
<!-- runtime/lib/nodejs -->
<g id="node35" class="node">
<title>runtime/lib/nodejs</title>
<polygon fill="none" stroke="black" points="227.5,-495.5 227.5,-531.5 290.5,-531.5 290.5,-495.5 227.5,-495.5"/>
<text text-anchor="middle" x="259" y="-509.8" font-family="Times,serif" font-size="14.00">nodejs</text>
</g>
<!-- runtime/lib&#45;&gt;runtime/lib/nodejs -->
<g id="edge34" class="edge">
<title>runtime/lib&#45;&gt;runtime/lib/nodejs</title>
<path fill="none" stroke="black" d="M147.99,-421.76C158.8,-440.12 177.53,-468.24 200,-486.5 205.44,-490.92 211.73,-494.81 218.12,-498.15"/>
<polygon fill="black" stroke="black" points="216.92,-501.46 227.45,-502.66 219.97,-495.16 216.92,-501.46"/>
</g>
<!-- runtime/lib/python -->
<g id="node36" class="node">
<title>runtime/lib/python</title>
<polygon fill="none" stroke="black" points="226,-440.5 226,-476.5 292,-476.5 292,-440.5 226,-440.5"/>
<text text-anchor="middle" x="259" y="-454.8" font-family="Times,serif" font-size="14.00">python</text>
</g>
<!-- runtime/lib&#45;&gt;runtime/lib/python -->
<g id="edge35" class="edge">
<title>runtime/lib&#45;&gt;runtime/lib/python</title>
<path fill="none" stroke="black" d="M164.04,-415.43C179.28,-422.42 198.87,-431.4 216.22,-439.35"/>
<polygon fill="black" stroke="black" points="215.04,-442.66 225.59,-443.64 217.96,-436.3 215.04,-442.66"/>
</g>
<!-- runtime/lib/FRAMEWORK -->
<g id="node37" class="node">
<title>runtime/lib/FRAMEWORK</title>
<polygon fill="none" stroke="black" points="200,-385.5 200,-421.5 318,-421.5 318,-385.5 200,-385.5"/>
<text text-anchor="middle" x="259" y="-399.8" font-family="Times,serif" font-size="14.00">FRAMEWORK</text>
</g>
<!-- runtime/lib&#45;&gt;runtime/lib/FRAMEWORK -->
<g id="edge36" class="edge">
<title>runtime/lib&#45;&gt;runtime/lib/FRAMEWORK</title>
<path fill="none" stroke="black" d="M164.04,-403.5C171.83,-403.5 180.77,-403.5 189.96,-403.5"/>
<polygon fill="black" stroke="black" points="190,-407 200,-403.5 190,-400 190,-407"/>
</g>
<!-- runtime/lib/catalog -->
<g id="node39" class="node">
<title>runtime/lib/catalog</title>
<polygon fill="none" stroke="black" points="225,-330.5 225,-366.5 293,-366.5 293,-330.5 225,-330.5"/>
<text text-anchor="middle" x="259" y="-344.8" font-family="Times,serif" font-size="14.00">catalog</text>
</g>
<!-- runtime/lib&#45;&gt;runtime/lib/catalog -->
<g id="edge38" class="edge">
<title>runtime/lib&#45;&gt;runtime/lib/catalog</title>
<path fill="none" stroke="black" d="M164.04,-391.57C179.04,-384.69 198.27,-375.87 215.43,-368.01"/>
<polygon fill="black" stroke="black" points="217.07,-371.11 224.7,-363.76 214.15,-364.75 217.07,-371.11"/>
</g>
<!-- runtime/lib/golang -->
<g id="node41" class="node">
<title>runtime/lib/golang</title>
<polygon fill="none" stroke="black" points="226.5,-275.5 226.5,-311.5 291.5,-311.5 291.5,-275.5 226.5,-275.5"/>
<text text-anchor="middle" x="259" y="-289.8" font-family="Times,serif" font-size="14.00">golang</text>
</g>
<!-- runtime/lib&#45;&gt;runtime/lib/golang -->
<g id="edge40" class="edge">
<title>runtime/lib&#45;&gt;runtime/lib/golang</title>
<path fill="none" stroke="black" d="M148.3,-385.19C159.22,-367.11 177.91,-339.6 200,-321.5 205.23,-317.21 211.22,-313.39 217.33,-310.05"/>
<polygon fill="black" stroke="black" points="218.95,-313.15 226.28,-305.5 215.78,-306.91 218.95,-313.15"/>
</g>
<!-- runtime/lib/shell -->
<g id="node42" class="node">
<title>runtime/lib/shell</title>
<polygon fill="none" stroke="black" points="232,-220.5 232,-256.5 286,-256.5 286,-220.5 232,-220.5"/>
<text text-anchor="middle" x="259" y="-234.8" font-family="Times,serif" font-size="14.00">shell</text>
</g>
<!-- runtime/lib&#45;&gt;runtime/lib/shell -->
<g id="edge41" class="edge">
<title>runtime/lib&#45;&gt;runtime/lib/shell</title>
<path fill="none" stroke="black" d="M146.79,-385.23C151.89,-374.55 158.39,-360.8 164,-348.5 180.51,-312.28 172.37,-295.15 200,-266.5 206.32,-259.95 214.48,-254.74 222.67,-250.67"/>
<polygon fill="black" stroke="black" points="224.15,-253.84 231.84,-246.56 221.29,-247.46 224.15,-253.84"/>
</g>
<!-- runtime/lib/cpe/fedora -->
<g id="node25" class="node">
<title>runtime/lib/cpe/fedora</title>
<polygon fill="none" stroke="black" points="381,-660.5 381,-696.5 443,-696.5 443,-660.5 381,-660.5"/>
<text text-anchor="middle" x="412" y="-674.8" font-family="Times,serif" font-size="14.00">fedora</text>
</g>
<!-- runtime/lib/cpe&#45;&gt;runtime/lib/cpe/fedora -->
<g id="edge24" class="edge">
<title>runtime/lib/cpe&#45;&gt;runtime/lib/cpe/fedora</title>
<path fill="none" stroke="black" d="M286.3,-633.08C309.78,-641.63 344.51,-654.28 371.35,-664.06"/>
<polygon fill="black" stroke="black" points="370.26,-667.38 380.85,-667.52 372.65,-660.81 370.26,-667.38"/>
</g>
<!-- runtime/lib/cpe/linux&#45;common -->
<g id="node29" class="node">
<title>runtime/lib/cpe/linux&#45;common</title>
<polygon fill="none" stroke="black" points="354,-605.5 354,-641.5 470,-641.5 470,-605.5 354,-605.5"/>
<text text-anchor="middle" x="412" y="-619.8" font-family="Times,serif" font-size="14.00">linux&#45;common</text>
</g>
<!-- runtime/lib/cpe&#45;&gt;runtime/lib/cpe/linux&#45;common -->
<g id="edge28" class="edge">
<title>runtime/lib/cpe&#45;&gt;runtime/lib/cpe/linux&#45;common</title>
<path fill="none" stroke="black" d="M286.3,-623.5C302.2,-623.5 323.27,-623.5 343.54,-623.5"/>
<polygon fill="black" stroke="black" points="343.73,-627 353.72,-623.5 343.72,-620 343.73,-627"/>
</g>
<!-- runtime/lib/cpe/linux&#45;desktop -->
<g id="node33" class="node">
<title>runtime/lib/cpe/linux&#45;desktop</title>
<polygon fill="none" stroke="black" points="356,-550.5 356,-586.5 468,-586.5 468,-550.5 356,-550.5"/>
<text text-anchor="middle" x="412" y="-564.8" font-family="Times,serif" font-size="14.00">linux&#45;desktop</text>
</g>
<!-- runtime/lib/cpe&#45;&gt;runtime/lib/cpe/linux&#45;desktop -->
<g id="edge32" class="edge">
<title>runtime/lib/cpe&#45;&gt;runtime/lib/cpe/linux&#45;desktop</title>
<path fill="none" stroke="black" d="M286.3,-613.92C304.42,-607.32 329.22,-598.29 351.94,-590.01"/>
<polygon fill="black" stroke="black" points="353.33,-593.23 361.52,-586.52 350.93,-586.65 353.33,-593.23"/>
</g>
<!-- runtime/lib/cpe/fedora/rootfs -->
<g id="node26" class="node">
<title>runtime/lib/cpe/fedora/rootfs</title>
<polygon fill="none" stroke="black" points="530,-660.5 530,-696.5 589,-696.5 589,-660.5 530,-660.5"/>
<text text-anchor="middle" x="559.5" y="-674.8" font-family="Times,serif" font-size="14.00">rootfs</text>
</g>
<!-- runtime/lib/cpe/fedora&#45;&gt;runtime/lib/cpe/fedora/rootfs -->
<g id="edge25" class="edge">
<title>runtime/lib/cpe/fedora&#45;&gt;runtime/lib/cpe/fedora/rootfs</title>
<path fill="none" stroke="black" d="M443.15,-678.5C465.34,-678.5 495.69,-678.5 519.69,-678.5"/>
<polygon fill="black" stroke="black" points="519.88,-682 529.88,-678.5 519.88,-675 519.88,-682"/>
</g>
<!-- runtime/lib/cpe/fedora/rootfs/etc -->
<g id="node27" class="node">
<title>runtime/lib/cpe/fedora/rootfs/etc</title>
<polygon fill="none" stroke="black" points="649,-660.5 649,-696.5 703,-696.5 703,-660.5 649,-660.5"/>
<text text-anchor="middle" x="676" y="-674.8" font-family="Times,serif" font-size="14.00">etc</text>
</g>
<!-- runtime/lib/cpe/fedora/rootfs&#45;&gt;runtime/lib/cpe/fedora/rootfs/etc -->
<g id="edge26" class="edge">
<title>runtime/lib/cpe/fedora/rootfs&#45;&gt;runtime/lib/cpe/fedora/rootfs/etc</title>
<path fill="none" stroke="black" d="M589.1,-678.5C604.09,-678.5 622.63,-678.5 638.63,-678.5"/>
<polygon fill="black" stroke="black" points="638.72,-682 648.72,-678.5 638.72,-675 638.72,-682"/>
</g>
<!-- runtime/lib/cpe/fedora/rootfs/etc/ups -->
<g id="node28" class="node">
<title>runtime/lib/cpe/fedora/rootfs/etc/ups</title>
<polygon fill="none" stroke="black" points="739,-660.5 739,-696.5 793,-696.5 793,-660.5 739,-660.5"/>
<text text-anchor="middle" x="766" y="-674.8" font-family="Times,serif" font-size="14.00">ups</text>
</g>
<!-- runtime/lib/cpe/fedora/rootfs/etc&#45;&gt;runtime/lib/cpe/fedora/rootfs/etc/ups -->
<g id="edge27" class="edge">
<title>runtime/lib/cpe/fedora/rootfs/etc&#45;&gt;runtime/lib/cpe/fedora/rootfs/etc/ups</title>
<path fill="none" stroke="black" d="M703.4,-678.5C711.39,-678.5 720.31,-678.5 728.82,-678.5"/>
<polygon fill="black" stroke="black" points="728.92,-682 738.92,-678.5 728.92,-675 728.92,-682"/>
</g>
<!-- runtime/lib/cpe/linux&#45;common/rootfs -->
<g id="node30" class="node">
<title>runtime/lib/cpe/linux&#45;common/rootfs</title>
<polygon fill="none" stroke="black" points="530,-605.5 530,-641.5 589,-641.5 589,-605.5 530,-605.5"/>
<text text-anchor="middle" x="559.5" y="-619.8" font-family="Times,serif" font-size="14.00">rootfs</text>
</g>
<!-- runtime/lib/cpe/linux&#45;common&#45;&gt;runtime/lib/cpe/linux&#45;common/rootfs -->
<g id="edge29" class="edge">
<title>runtime/lib/cpe/linux&#45;common&#45;&gt;runtime/lib/cpe/linux&#45;common/rootfs</title>
<path fill="none" stroke="black" d="M470.09,-623.5C486.78,-623.5 504.62,-623.5 519.88,-623.5"/>
<polygon fill="black" stroke="black" points="519.98,-627 529.98,-623.5 519.98,-620 519.98,-627"/>
</g>
<!-- runtime/lib/cpe/linux&#45;common/rootfs/etc -->
<g id="node31" class="node">
<title>runtime/lib/cpe/linux&#45;common/rootfs/etc</title>
<polygon fill="none" stroke="black" points="649,-605.5 649,-641.5 703,-641.5 703,-605.5 649,-605.5"/>
<text text-anchor="middle" x="676" y="-619.8" font-family="Times,serif" font-size="14.00">etc</text>
</g>
<!-- runtime/lib/cpe/linux&#45;common/rootfs&#45;&gt;runtime/lib/cpe/linux&#45;common/rootfs/etc -->
<g id="edge30" class="edge">
<title>runtime/lib/cpe/linux&#45;common/rootfs&#45;&gt;runtime/lib/cpe/linux&#45;common/rootfs/etc</title>
<path fill="none" stroke="black" d="M589.1,-623.5C604.09,-623.5 622.63,-623.5 638.63,-623.5"/>
<polygon fill="black" stroke="black" points="638.72,-627 648.72,-623.5 638.72,-620 638.72,-627"/>
</g>
<!-- runtime/lib/cpe/linux&#45;common/rootfs/etc/skel -->
<g id="node32" class="node">
<title>runtime/lib/cpe/linux&#45;common/rootfs/etc/skel</title>
<polygon fill="none" stroke="black" points="739,-605.5 739,-641.5 793,-641.5 793,-605.5 739,-605.5"/>
<text text-anchor="middle" x="766" y="-619.8" font-family="Times,serif" font-size="14.00">skel</text>
</g>
<!-- runtime/lib/cpe/linux&#45;common/rootfs/etc&#45;&gt;runtime/lib/cpe/linux&#45;common/rootfs/etc/skel -->
<g id="edge31" class="edge">
<title>runtime/lib/cpe/linux&#45;common/rootfs/etc&#45;&gt;runtime/lib/cpe/linux&#45;common/rootfs/etc/skel</title>
<path fill="none" stroke="black" d="M703.4,-623.5C711.39,-623.5 720.31,-623.5 728.82,-623.5"/>
<polygon fill="black" stroke="black" points="728.92,-627 738.92,-623.5 728.92,-620 728.92,-627"/>
</g>
<!-- runtime/lib/FRAMEWORK/INSTANCE -->
<g id="node38" class="node">
<title>runtime/lib/FRAMEWORK/INSTANCE</title>
<polygon fill="none" stroke="black" points="364.5,-385.5 364.5,-421.5 459.5,-421.5 459.5,-385.5 364.5,-385.5"/>
<text text-anchor="middle" x="412" y="-399.8" font-family="Times,serif" font-size="14.00">INSTANCE</text>
</g>
<!-- runtime/lib/FRAMEWORK&#45;&gt;runtime/lib/FRAMEWORK/INSTANCE -->
<g id="edge37" class="edge">
<title>runtime/lib/FRAMEWORK&#45;&gt;runtime/lib/FRAMEWORK/INSTANCE</title>
<path fill="none" stroke="black" d="M318.38,-403.5C330.19,-403.5 342.59,-403.5 354.34,-403.5"/>
<polygon fill="black" stroke="black" points="354.47,-407 364.47,-403.5 354.47,-400 354.47,-407"/>
</g>
<!-- runtime/lib/catalog/bin -->
<g id="node40" class="node">
<title>runtime/lib/catalog/bin</title>
<polygon fill="none" stroke="black" points="385,-330.5 385,-366.5 439,-366.5 439,-330.5 385,-330.5"/>
<text text-anchor="middle" x="412" y="-344.8" font-family="Times,serif" font-size="14.00">bin</text>
</g>
<!-- runtime/lib/catalog&#45;&gt;runtime/lib/catalog/bin -->
<g id="edge39" class="edge">
<title>runtime/lib/catalog&#45;&gt;runtime/lib/catalog/bin</title>
<path fill="none" stroke="black" d="M293.14,-348.5C317.29,-348.5 350,-348.5 374.84,-348.5"/>
<polygon fill="black" stroke="black" points="374.95,-352 384.95,-348.5 374.95,-345 374.95,-352"/>
</g>
<!-- runtime/lib/shell/bash -->
<g id="node43" class="node">
<title>runtime/lib/shell/bash</title>
<polygon fill="none" stroke="black" points="385,-275.5 385,-311.5 439,-311.5 439,-275.5 385,-275.5"/>
<text text-anchor="middle" x="412" y="-289.8" font-family="Times,serif" font-size="14.00">bash</text>
</g>
<!-- runtime/lib/shell&#45;&gt;runtime/lib/shell/bash -->
<g id="edge42" class="edge">
<title>runtime/lib/shell&#45;&gt;runtime/lib/shell/bash</title>
<path fill="none" stroke="black" d="M286.3,-248.08C310.99,-257.07 348.1,-270.59 375.42,-280.54"/>
<polygon fill="black" stroke="black" points="374.41,-283.9 385,-284.03 376.8,-277.32 374.41,-283.9"/>
</g>
<!-- runtime/lib/shell/fish -->
<g id="node47" class="node">
<title>runtime/lib/shell/fish</title>
<polygon fill="none" stroke="black" points="385,-220.5 385,-256.5 439,-256.5 439,-220.5 385,-220.5"/>
<text text-anchor="middle" x="412" y="-234.8" font-family="Times,serif" font-size="14.00">fish</text>
</g>
<!-- runtime/lib/shell&#45;&gt;runtime/lib/shell/fish -->
<g id="edge46" class="edge">
<title>runtime/lib/shell&#45;&gt;runtime/lib/shell/fish</title>
<path fill="none" stroke="black" d="M286.3,-238.5C310.77,-238.5 347.45,-238.5 374.7,-238.5"/>
<polygon fill="black" stroke="black" points="375,-242 385,-238.5 375,-235 375,-242"/>
</g>
<!-- runtime/lib/shell/ksh -->
<g id="node48" class="node">
<title>runtime/lib/shell/ksh</title>
<polygon fill="none" stroke="black" points="385,-165.5 385,-201.5 439,-201.5 439,-165.5 385,-165.5"/>
<text text-anchor="middle" x="412" y="-179.8" font-family="Times,serif" font-size="14.00">ksh</text>
</g>
<!-- runtime/lib/shell&#45;&gt;runtime/lib/shell/ksh -->
<g id="edge47" class="edge">
<title>runtime/lib/shell&#45;&gt;runtime/lib/shell/ksh</title>
<path fill="none" stroke="black" d="M286.3,-228.92C310.99,-219.93 348.1,-206.41 375.42,-196.46"/>
<polygon fill="black" stroke="black" points="376.8,-199.68 385,-192.97 374.41,-193.1 376.8,-199.68"/>
</g>
<!-- runtime/lib/shell/zsh -->
<g id="node49" class="node">
<title>runtime/lib/shell/zsh</title>
<polygon fill="none" stroke="black" points="385,-110.5 385,-146.5 439,-146.5 439,-110.5 385,-110.5"/>
<text text-anchor="middle" x="412" y="-124.8" font-family="Times,serif" font-size="14.00">zsh</text>
</g>
<!-- runtime/lib/shell&#45;&gt;runtime/lib/shell/zsh -->
<g id="edge48" class="edge">
<title>runtime/lib/shell&#45;&gt;runtime/lib/shell/zsh</title>
<path fill="none" stroke="black" d="M286.06,-229.97C296.75,-225.61 308.76,-219.5 318,-211.5 340.09,-192.38 332.11,-175.85 354,-156.5 360.34,-150.89 368.01,-146.13 375.63,-142.21"/>
<polygon fill="black" stroke="black" points="377.29,-145.3 384.82,-137.85 374.29,-138.98 377.29,-145.3"/>
</g>
<!-- runtime/lib/shell/bash/alias -->
<g id="node44" class="node">
<title>runtime/lib/shell/bash/alias</title>
<polygon fill="none" stroke="black" points="532.5,-330.5 532.5,-366.5 586.5,-366.5 586.5,-330.5 532.5,-330.5"/>
<text text-anchor="middle" x="559.5" y="-344.8" font-family="Times,serif" font-size="14.00">alias</text>
</g>
<!-- runtime/lib/shell/bash&#45;&gt;runtime/lib/shell/bash/alias -->
<g id="edge43" class="edge">
<title>runtime/lib/shell/bash&#45;&gt;runtime/lib/shell/bash/alias</title>
<path fill="none" stroke="black" d="M439.01,-303.33C462.35,-312.16 496.82,-325.18 522.74,-334.98"/>
<polygon fill="black" stroke="black" points="521.63,-338.3 532.22,-338.57 524.11,-331.76 521.63,-338.3"/>
</g>
<!-- runtime/lib/shell/bash/environment -->
<g id="node45" class="node">
<title>runtime/lib/shell/bash/environment</title>
<polygon fill="none" stroke="black" points="506,-275.5 506,-311.5 613,-311.5 613,-275.5 506,-275.5"/>
<text text-anchor="middle" x="559.5" y="-289.8" font-family="Times,serif" font-size="14.00">environment</text>
</g>
<!-- runtime/lib/shell/bash&#45;&gt;runtime/lib/shell/bash/environment -->
<g id="edge44" class="edge">
<title>runtime/lib/shell/bash&#45;&gt;runtime/lib/shell/bash/environment</title>
<path fill="none" stroke="black" d="M439.01,-293.5C454.89,-293.5 475.91,-293.5 495.89,-293.5"/>
<polygon fill="black" stroke="black" points="495.9,-297 505.9,-293.5 495.9,-290 495.9,-297"/>
</g>
<!-- runtime/lib/shell/bash/function -->
<g id="node46" class="node">
<title>runtime/lib/shell/bash/function</title>
<polygon fill="none" stroke="black" points="522,-220.5 522,-256.5 597,-256.5 597,-220.5 522,-220.5"/>
<text text-anchor="middle" x="559.5" y="-234.8" font-family="Times,serif" font-size="14.00">function</text>
</g>
<!-- runtime/lib/shell/bash&#45;&gt;runtime/lib/shell/bash/function -->
<g id="edge45" class="edge">
<title>runtime/lib/shell/bash&#45;&gt;runtime/lib/shell/bash/function</title>
<path fill="none" stroke="black" d="M439.01,-283.67C459.36,-275.97 488.17,-265.08 512.4,-255.92"/>
<polygon fill="black" stroke="black" points="513.66,-259.19 521.78,-252.38 511.19,-252.64 513.66,-259.19"/>
</g>
<!-- runtime/usr/bin -->
<g id="node53" class="node">
<title>runtime/usr/bin</title>
<polygon fill="none" stroke="black" points="232,-165.5 232,-201.5 286,-201.5 286,-165.5 232,-165.5"/>
<text text-anchor="middle" x="259" y="-179.8" font-family="Times,serif" font-size="14.00">bin</text>
</g>
<!-- runtime/usr&#45;&gt;runtime/usr/bin -->
<g id="edge52" class="edge">
<title>runtime/usr&#45;&gt;runtime/usr/bin</title>
<path fill="none" stroke="black" d="M164.04,-183.5C180.83,-183.5 202.91,-183.5 221.44,-183.5"/>
<polygon fill="black" stroke="black" points="221.6,-187 231.6,-183.5 221.6,-180 221.6,-187"/>
</g>
<!-- runtime/usr/include -->
<g id="node54" class="node">
<title>runtime/usr/include</title>
<polygon fill="none" stroke="black" points="225,-110.5 225,-146.5 293,-146.5 293,-110.5 225,-110.5"/>
<text text-anchor="middle" x="259" y="-124.8" font-family="Times,serif" font-size="14.00">include</text>
</g>
<!-- runtime/usr&#45;&gt;runtime/usr/include -->
<g id="edge53" class="edge">
<title>runtime/usr&#45;&gt;runtime/usr/include</title>
<path fill="none" stroke="black" d="M164.04,-171.57C179.04,-164.69 198.27,-155.87 215.43,-148.01"/>
<polygon fill="black" stroke="black" points="217.07,-151.11 224.7,-143.76 214.15,-144.75 217.07,-151.11"/>
</g>
<!-- runtime/usr/lib -->
<g id="node55" class="node">
<title>runtime/usr/lib</title>
<polygon fill="none" stroke="black" points="232,-55.5 232,-91.5 286,-91.5 286,-55.5 232,-55.5"/>
<text text-anchor="middle" x="259" y="-69.8" font-family="Times,serif" font-size="14.00">lib</text>
</g>
<!-- runtime/usr&#45;&gt;runtime/usr/lib -->
<g id="edge54" class="edge">
<title>runtime/usr&#45;&gt;runtime/usr/lib</title>
<path fill="none" stroke="black" d="M156.38,-165.33C159.03,-162.45 161.65,-159.45 164,-156.5 182.21,-133.66 178.05,-120.77 200,-101.5 206.64,-95.67 214.72,-90.77 222.7,-86.78"/>
<polygon fill="black" stroke="black" points="224.33,-89.88 231.94,-82.52 221.4,-83.53 224.33,-89.88"/>
</g>
<!-- runtime/var/lib -->
<g id="node57" class="node">
<title>runtime/var/lib</title>
<polygon fill="none" stroke="black" points="232,-0.5 232,-36.5 286,-36.5 286,-0.5 232,-0.5"/>
<text text-anchor="middle" x="259" y="-14.8" font-family="Times,serif" font-size="14.00">lib</text>
</g>
<!-- runtime/var&#45;&gt;runtime/var/lib -->
<g id="edge56" class="edge">
<title>runtime/var&#45;&gt;runtime/var/lib</title>
<path fill="none" stroke="black" d="M156.4,-110.34C159.04,-107.47 161.66,-104.46 164,-101.5 182.35,-78.29 177.71,-64.96 200,-45.5 206.62,-39.73 214.68,-34.94 222.66,-31.09"/>
<polygon fill="black" stroke="black" points="224.18,-34.24 231.91,-26.99 221.34,-27.84 224.18,-34.24"/>
</g>
</g>
</svg>
