<?xml version="1.0" encoding="UTF-8" standalone="no"?>
<!DOCTYPE svg PUBLIC "-//W3C//DTD SVG 1.1//EN"
 "http://www.w3.org/Graphics/SVG/1.1/DTD/svg11.dtd">
<!-- Generated by graphviz version 2.40.1 (0)
 -->
<!-- Title: lib Pages: 1 -->
<svg width="307pt" height="210pt"
 viewBox="0.00 0.00 307.00 210.00" xmlns="http://www.w3.org/2000/svg" xmlns:xlink="http://www.w3.org/1999/xlink">
<g id="graph0" class="graph" transform="scale(1 1) rotate(0) translate(4 206)">
<title>lib</title>
<polygon fill="#ffffff" stroke="transparent" points="-4,4 -4,-206 303,-206 303,4 -4,4"/>
<!-- lib -->
<g id="node1" class="node">
<title>lib</title>
<polygon fill="none" stroke="#000000" points="0,-55.5 0,-91.5 54,-91.5 54,-55.5 0,-55.5"/>
<text text-anchor="middle" x="27" y="-69.8" font-family="Times,serif" font-size="14.00" fill="#000000">lib</text>
</g>
<!-- lib/bash -->
<g id="node2" class="node">
<title>lib/bash</title>
<polygon fill="none" stroke="#000000" points="96,-110.5 96,-146.5 150,-146.5 150,-110.5 96,-110.5"/>
<text text-anchor="middle" x="123" y="-124.8" font-family="Times,serif" font-size="14.00" fill="#000000">bash</text>
</g>
<!-- lib&#45;&gt;lib/bash -->
<g id="edge1" class="edge">
<title>lib&#45;&gt;lib/bash</title>
<path fill="none" stroke="#000000" d="M54.253,-89.1137C64.3868,-94.9195 76.0485,-101.6007 86.8549,-107.7919"/>
<polygon fill="#000000" stroke="#000000" points="85.2621,-110.913 95.6789,-112.8473 88.7419,-104.8392 85.2621,-110.913"/>
</g>
<!-- lib/python -->
<g id="node6" class="node">
<title>lib/python</title>
<polygon fill="none" stroke="#000000" points="90,-55.5 90,-91.5 156,-91.5 156,-55.5 90,-55.5"/>
<text text-anchor="middle" x="123" y="-69.8" font-family="Times,serif" font-size="14.00" fill="#000000">python</text>
</g>
<!-- lib&#45;&gt;lib/python -->
<g id="edge5" class="edge">
<title>lib&#45;&gt;lib/python</title>
<path fill="none" stroke="#000000" d="M54.253,-73.5C62.2215,-73.5 71.1346,-73.5 79.8338,-73.5"/>
<polygon fill="#000000" stroke="#000000" points="79.8783,-77.0001 89.8782,-73.5 79.8782,-70.0001 79.8783,-77.0001"/>
</g>
<!-- lib/golang -->
<g id="node7" class="node">
<title>lib/golang</title>
<polygon fill="none" stroke="#000000" points="90.5,-.5 90.5,-36.5 155.5,-36.5 155.5,-.5 90.5,-.5"/>
<text text-anchor="middle" x="123" y="-14.8" font-family="Times,serif" font-size="14.00" fill="#000000">golang</text>
</g>
<!-- lib&#45;&gt;lib/golang -->
<g id="edge6" class="edge">
<title>lib&#45;&gt;lib/golang</title>
<path fill="none" stroke="#000000" d="M54.253,-57.8863C62.9906,-52.8804 72.8641,-47.2237 82.3458,-41.7915"/>
<polygon fill="#000000" stroke="#000000" points="84.3297,-44.6886 91.2667,-36.6806 80.8499,-38.6148 84.3297,-44.6886"/>
</g>
<!-- lib/bash/alias -->
<g id="node3" class="node">
<title>lib/bash/alias</title>
<polygon fill="none" stroke="#000000" points="218.5,-165.5 218.5,-201.5 272.5,-201.5 272.5,-165.5 218.5,-165.5"/>
<text text-anchor="middle" x="245.5" y="-179.8" font-family="Times,serif" font-size="14.00" fill="#000000">alias</text>
</g>
<!-- lib/bash&#45;&gt;lib/bash/alias -->
<g id="edge2" class="edge">
<title>lib/bash&#45;&gt;lib/bash/alias</title>
<path fill="none" stroke="#000000" d="M150.1867,-140.7063C167.553,-148.5034 190.2762,-158.7056 209.1795,-167.1928"/>
<polygon fill="#000000" stroke="#000000" points="207.833,-170.4248 218.3893,-171.3278 210.7002,-164.0389 207.833,-170.4248"/>
</g>
<!-- lib/bash/function -->
<g id="node4" class="node">
<title>lib/bash/function</title>
<polygon fill="none" stroke="#000000" points="207.5,-110.5 207.5,-146.5 283.5,-146.5 283.5,-110.5 207.5,-110.5"/>
<text text-anchor="middle" x="245.5" y="-124.8" font-family="Times,serif" font-size="14.00" fill="#000000">function</text>
</g>
<!-- lib/bash&#45;&gt;lib/bash/function -->
<g id="edge3" class="edge">
<title>lib/bash&#45;&gt;lib/bash/function</title>
<path fill="none" stroke="#000000" d="M150.1867,-128.5C163.9483,-128.5 181.0736,-128.5 196.9964,-128.5"/>
<polygon fill="#000000" stroke="#000000" points="197.2389,-132.0001 207.2389,-128.5 197.2388,-125.0001 197.2389,-132.0001"/>
</g>
<!-- lib/bash/environment -->
<g id="node5" class="node">
<title>lib/bash/environment</title>
<polygon fill="none" stroke="#000000" points="192,-55.5 192,-91.5 299,-91.5 299,-55.5 192,-55.5"/>
<text text-anchor="middle" x="245.5" y="-69.8" font-family="Times,serif" font-size="14.00" fill="#000000">environment</text>
</g>
<!-- lib/bash&#45;&gt;lib/bash/environment -->
<g id="edge4" class="edge">
<title>lib/bash&#45;&gt;lib/bash/environment</title>
<path fill="none" stroke="#000000" d="M150.1867,-116.2937C163.6123,-110.2659 180.2395,-102.8006 195.8283,-95.8016"/>
<polygon fill="#000000" stroke="#000000" points="197.6733,-98.8099 205.3624,-91.521 194.8061,-92.424 197.6733,-98.8099"/>
</g>
</g>
</svg>
